<svg width="41" height="41" viewBox="0 0 41 41" fill="none" xmlns="http://www.w3.org/2000/svg">
<rect width="41" height="41" rx="8" fill="#FE4F00"/>
<rect x="21" y="12" width="7" height="8" rx="3.5" fill="white"/>
<path fill-rule="evenodd" clip-rule="evenodd" d="M12 10.05C12 8.91782 12.9178 8 14.05 8H17.95C19.0822 8 20 8.91782 20 10.05V16.9C20 19.1644 21.8356 21 24.1 21H27.1784C27.7852 21 28.3158 21.4087 28.4707 21.9955L28.6911 22.8299C28.7182 22.9327 28.8118 23.0038 28.9181 23.0024C29.0222 23.001 29.1145 23.0693 29.1435 23.1693L31.2381 30.378C31.6192 31.6896 30.6354 33 29.2696 33H26.8295C24.9807 33 23.3606 31.7626 22.874 29.979L21.3848 24.5193C21.3011 24.2127 21.0226 24 20.7048 24C20.3156 24 20 24.3156 20 24.7048V30.95C20 32.0822 19.0822 33 17.95 33H14.05C12.9178 33 12 32.0822 12 30.95V10.05Z" fill="white"/>
</svg>
